<svg width="362" height="79" viewBox="0 0 362 79" fill="none" xmlns="http://www.w3.org/2000/svg">
<path d="M198.387 62.6853C198.387 62.6853 198.66 62.8808 198.66 63.187C198.66 63.4924 198.387 63.8597 198.387 63.8597L194.876 68.4311L190.819 63.9403C190.819 63.9403 190.379 63.5388 190.379 63.2033C190.379 62.8661 190.591 62.6861 190.591 62.6861H186.647C186.647 62.6861 187.194 62.805 187.649 63.3556C188.104 63.9061 193.473 70.0975 193.473 70.0975C193.473 70.0975 193.473 77.0185 193.473 77.3581C193.473 78.0007 193.079 78.4584 193.079 78.4584H195.839C195.839 78.4584 195.445 78.0618 195.445 77.3581C195.445 76.9639 195.445 69.4858 195.445 69.4858C195.445 69.4858 199.751 63.8907 200.176 63.3711C200.601 62.8506 201.148 62.6853 201.148 62.6853H198.387V62.6853Z" fill="#001722"/>
<path fill-rule="evenodd" clip-rule="evenodd" d="M159.208 77.4803C159.208 78.0308 159.481 78.4584 159.481 78.4584H157.085C157.085 78.4584 157.813 77.8777 158.087 77.1439C158.36 76.4101 164.517 61.2161 164.517 61.2161C164.517 61.2161 170.401 75.8604 170.857 76.9607C171.312 78.0618 172.07 78.4584 172.07 78.4584H168.612C168.612 78.4584 168.854 78.245 168.854 77.7254C168.854 77.205 167.156 73.3226 167.156 73.3226H160.785C160.785 73.3226 159.208 76.9289 159.208 77.4803ZM163.985 65.526L161.273 72.2207L166.731 72.2223L163.985 65.526Z" fill="#001722"/>
<path d="M123.102 62.7438C123.102 62.7438 123.495 62.958 123.799 63.8751C124.102 64.793 128.652 78.9788 128.652 78.9788L133.354 66.6271L138.48 78.9788C138.48 78.9788 143.06 64.8532 143.394 63.906C143.728 62.958 144.274 62.7438 144.274 62.7438H141.969C141.969 62.7438 142.181 63.1722 142.181 63.4166C142.181 63.6609 141.969 64.5177 141.969 64.5177L138.875 73.9952L133.991 61.5515L129.411 73.689L126.499 64.8834C126.499 64.8834 126.226 64.1504 126.226 63.6609C126.226 63.1722 126.559 62.7438 126.559 62.7438H123.102H123.102Z" fill="#001722"/>
<path d="M106.831 62.6821C106.831 62.6821 107.225 63.0804 107.225 63.7531C107.225 64.2263 107.225 70.8721 107.225 74.682L95.5623 61.8579C95.5623 61.8579 95.5623 76.7164 95.5623 77.3582C95.5623 78.0008 95.168 78.4585 95.168 78.4585H97.079C97.079 78.4585 96.6847 78.0619 96.6847 77.3582C96.6847 76.9982 96.6863 66.2526 96.6863 66.2526L107.874 78.5701L108.227 78.5815C108.227 78.5815 108.227 64.3957 108.227 63.7531C108.227 63.1113 108.621 62.6821 108.621 62.6821H106.831Z" fill="#001722"/>
<path d="M76.387 62.6821H79.4203C79.4203 62.6821 79.0268 63.1113 79.0268 63.7531C79.0268 64.3949 79.0268 76.6554 79.0268 77.3582C79.0268 78.0619 79.4203 78.4585 79.4203 78.4585H76.387C76.387 78.4585 76.7813 78.0008 76.7813 77.3582C76.7813 76.7164 76.7813 64.4258 76.7813 63.7531C76.7813 63.0804 76.387 62.6821 76.387 62.6821Z" fill="#001722"/>
<path d="M50.8286 62.7131H61.1424V64.3648C61.1424 64.3648 60.5961 63.6611 59.3825 63.6611C58.1696 63.6611 53.4677 63.6611 53.4677 63.6611V69.5006C53.4677 69.5006 57.4715 69.5006 58.0476 69.5006C58.6245 69.5006 59.2007 69.1944 59.2007 69.1944V70.8461C59.2007 70.8461 58.7756 70.6017 58.0783 70.6017C57.381 70.6017 53.4677 70.6017 53.4677 70.6017V77.3583C53.4677 77.3583 58.8969 77.3583 59.898 77.3583C60.8992 77.3583 61.4753 76.7466 61.4753 76.7466V78.4586C61.4753 78.4586 51.5567 78.4586 51.2536 78.4586C50.9498 78.4586 50.8286 78.3983 50.8286 78.123C50.8286 77.8469 51.2229 77.816 51.2229 77.3281C51.2229 76.8387 51.2229 63.9665 51.2229 63.5088C51.2229 63.0503 50.8286 62.7131 50.8286 62.7131H50.8286Z" fill="#001722"/>
<path d="M23.3708 62.6821H38.1425L38.1126 64.2116C38.1126 64.2116 37.7183 63.7531 36.9595 63.7531C36.2016 63.7531 31.7121 63.7531 31.7121 63.7531C31.7121 63.7531 31.7121 76.6554 31.7121 77.3582C31.7121 78.0619 32.1671 78.4585 32.1671 78.4585H29.0125C29.0125 78.4585 29.4674 78.0008 29.4674 77.3582C29.4674 76.7164 29.4674 63.7531 29.4674 63.7531C29.4674 63.7531 25.2818 63.7531 24.3412 63.7531C23.4007 63.7531 23.3401 64.1506 23.3401 64.1506L23.3708 62.6821Z" fill="#001722"/>
<path d="M6.09582 61.4604C8.06824 61.4604 8.40196 62.1332 9.67623 62.1332C10.0697 62.1332 10.3736 61.919 10.3736 61.919V64.8232C10.3736 64.8232 7.88643 62.6218 5.85341 62.6218C3.8212 62.6218 2.88065 63.6 2.88065 64.9764C2.88065 66.6582 4.09432 67.4221 7.55271 68.6144C11.0103 69.8059 11.5565 72.0383 11.5565 73.536C11.5565 77.5406 8.09813 78.7036 5.79281 78.7036C3.48748 78.7036 1.33407 77.5105 0.879143 77.5105C0.424219 77.5105 0 77.8778 0 77.8778C0 77.8778 0.0298973 75.9517 0 74.6372C1.30417 75.9818 2.79015 77.3582 5.45909 77.3891C8.12884 77.4193 9.15989 75.7383 9.15989 74.1786C9.15989 72.6198 7.88643 71.7019 5.42919 70.7849C2.97196 69.8678 0.424219 68.6454 0.424219 65.8006C0.424219 62.9582 3.57879 61.4604 6.09582 61.4604V61.4604Z" fill="#001722"/>
<path d="M274.345 61.4604C276.316 61.4604 276.65 62.1332 277.924 62.1332C278.318 62.1332 278.621 61.919 278.621 61.919V64.8232C278.621 64.8232 276.134 62.6218 274.102 62.6218C272.07 62.6218 271.129 63.6 271.129 64.9764C271.129 66.6582 272.342 67.4221 275.8 68.6144C279.26 69.8059 279.804 72.0383 279.804 73.536C279.804 77.5406 276.347 78.7036 274.042 78.7036C271.736 78.7036 269.583 77.5105 269.128 77.5105C268.672 77.5105 268.249 77.8778 268.249 77.8778C268.249 77.8778 268.278 75.9517 268.249 74.6372C269.552 75.9818 271.039 77.3582 273.708 77.3891C276.377 77.4193 277.409 75.7383 277.409 74.1786C277.409 72.6198 276.134 71.7019 273.677 70.7849C271.22 69.8678 268.672 68.6454 268.672 65.8006C268.672 62.9582 271.827 61.4604 274.345 61.4604V61.4604Z" fill="#001722"/>
<path d="M356.152 61.4604C358.123 61.4604 358.457 62.1332 359.731 62.1332C360.126 62.1332 360.429 61.919 360.429 61.919V64.8232C360.429 64.8232 357.942 62.6218 355.909 62.6218C353.876 62.6218 352.936 63.6 352.936 64.9764C352.936 66.6582 354.15 67.4221 357.608 68.6144C361.065 69.8059 361.612 72.0383 361.612 73.536C361.612 77.5406 358.154 78.7036 355.849 78.7036C353.543 78.7036 351.389 77.5105 350.935 77.5105C350.479 77.5105 350.055 77.8778 350.055 77.8778C350.055 77.8778 350.085 75.9517 350.055 74.6372C351.359 75.9818 352.845 77.3582 355.516 77.3891C358.184 77.4193 359.216 75.7383 359.216 74.1786C359.216 72.6198 357.942 71.7019 355.485 70.7849C353.028 69.8678 350.479 68.6454 350.479 65.8006C350.479 62.9582 353.634 61.4604 356.152 61.4604V61.4604Z" fill="#001722"/>
<path d="M332.878 62.6821C332.878 62.6821 333.272 63.0804 333.272 63.7531C333.272 64.2263 333.272 70.8721 333.272 74.682L321.609 61.8579C321.609 61.8579 321.609 76.7164 321.609 77.3582C321.609 78.0008 321.214 78.4585 321.214 78.4585H323.126C323.126 78.4585 322.731 78.0619 322.731 77.3582C322.731 76.9982 322.733 66.2526 322.733 66.2526L333.92 78.5701L334.274 78.5815C334.274 78.5815 334.274 64.3957 334.274 63.7531C334.274 63.1113 334.667 62.6821 334.667 62.6821H332.878Z" fill="#001722"/>
<path fill-rule="evenodd" clip-rule="evenodd" d="M291.755 70.0242C291.755 65.8649 295.272 61.4604 300.559 61.4604C305.438 61.4604 309.124 66.0359 309.124 70.3337C309.124 74.6323 305.406 79.0001 300.457 79.0001C295.957 79.0001 291.755 74.7349 291.755 70.0242ZM300.559 77.8306C304.075 77.8306 306.021 73.5328 306.021 70.2987C306.021 67.7186 305.029 62.731 300.422 62.731C296.838 62.731 294.417 66.2737 294.417 70.1244C294.417 73.9742 296.6 77.8306 300.559 77.8306Z" fill="#001722"/>
<path d="M233.263 61.6421C231.427 61.6421 228.493 62.7147 228.493 65.0725C228.493 66.6525 229.649 67.5809 230.211 67.8782C229.174 68.4125 225.918 69.7832 225.918 73.3683C225.918 75.1617 227.396 78.5342 232.077 78.5342C236.757 78.5342 238.324 75.3905 238.324 73.4563C238.324 72.6532 238.119 72.4146 238.119 71.9373C238.119 71.4601 238.209 71.1897 238.651 70.8639C239.093 70.5381 238.83 69.9086 238.386 70.2384C237.941 70.5675 235.689 72.2664 235.276 72.5343C234.863 72.8015 234.892 73.1012 235.01 73.282C235.128 73.4628 235.333 73.5499 235.452 73.4595C235.57 73.3683 235.631 73.3113 235.867 73.3113C236.312 73.3113 236.905 73.94 236.905 74.5655C236.905 76.354 234.828 77.4901 232.905 77.4901C230.983 77.4901 228.465 75.9101 228.465 72.8047C228.465 69.6993 231.213 68.5069 233.349 68.2683C233.833 68.2121 233.88 67.73 232.963 67.4913C231.875 67.2071 230.596 66.4456 230.596 64.8339C230.596 63.2213 231.868 62.6284 232.876 62.6284C233.884 62.6284 235.187 63.1317 235.573 63.4314C235.961 63.7303 236.488 63.4949 236.488 62.9574C236.488 62.4191 235.1 61.6421 233.263 61.6421V61.6421Z" fill="#001722"/>
<path fill-rule="evenodd" clip-rule="evenodd" d="M189.983 8.93519C189.983 11.7751 192.166 15.4783 194.896 19.636C195.204 20.1052 195.527 20.5875 195.857 21.081C198.453 24.9612 201.509 29.5296 201.509 33.7607C201.509 38.5301 198.172 42.5664 193.016 42.5664C189.221 42.5664 187.434 40.3479 186.753 38.3468H182.43V42.7741C183.259 42.7798 184.037 42.7781 184.037 42.7496C185.675 45.0121 188.648 46.2346 192.47 46.2346V47.1525H188.041V48.4963H186.04V47.1525H181.671V48.4963H179.245V47.1525H174.877V48.4963H172.874V47.1525H168.446V46.2346C172.268 46.2346 175.241 45.0121 176.879 42.7496C176.879 42.7781 177.656 42.7798 178.486 42.7741V38.3468H174.163C173.482 40.3479 171.695 42.5664 167.9 42.5664C162.743 42.5664 159.407 38.5301 159.407 33.7607C159.407 29.5286 162.464 24.9591 165.061 21.0783C165.39 20.5858 165.712 20.1043 166.02 19.636C168.749 15.4783 170.933 11.7751 170.933 8.93519C170.933 6.09608 170.057 3.73829 167.718 3.73829C166.202 3.73829 165.637 4.76611 165.637 5.15215C165.637 5.53819 165.754 5.87862 166.285 5.87862C167.115 5.87862 167.476 6.5546 167.476 7.22325C167.476 7.93832 167.157 8.79755 165.837 8.79755C164.674 8.79755 163.862 7.47573 163.862 6.06187C163.862 5.03731 164.703 2.75609 167.578 2.75609C170.331 2.75609 172.331 4.51852 172.494 8.46933H175.483V6.48945H176.514V8.46933H179.911V5.9226C178.629 5.67176 177.659 4.53562 177.659 3.169C177.659 1.61832 178.906 0.36084 180.446 0.36084C181.985 0.36084 183.231 1.61832 183.231 3.169C183.231 4.52666 182.275 5.65954 181.004 5.92016V8.46933H184.402V6.48945H185.433V8.46933H188.422C188.586 4.51852 190.585 2.75609 193.339 2.75609C196.212 2.75609 197.054 5.03731 197.054 6.06187C197.054 7.47573 196.243 8.79755 195.078 8.79755C193.759 8.79755 193.44 7.93832 193.44 7.22325C193.44 6.5546 193.801 5.87862 194.631 5.87862C195.162 5.87862 195.279 5.53819 195.279 5.15215C195.279 4.76611 194.715 3.73829 193.199 3.73829C190.859 3.73829 189.983 6.09608 189.983 8.93519ZM169.356 34.0059C169.356 35.1363 168.689 35.5957 167.718 35.5957C166.748 35.5957 165.959 34.7087 165.959 33.6997C165.959 32.6906 166.93 30.5201 169.721 30.5201C173.269 30.5201 174.512 34.3113 174.512 36.3905C174.512 36.4291 174.51 36.4705 174.508 36.512L174.508 36.512L174.508 36.5121C174.507 36.5328 174.506 36.5535 174.505 36.5738H175.483V29.7961C173.888 28.8554 173.117 27.4521 173.117 26.0871C173.117 24.5642 173.847 22.9288 175.483 21.7462V9.98988H172.451C172.074 13.5099 169.81 17.1091 167.898 20.1491C167.627 20.581 167.362 21.0016 167.111 21.409C166.875 21.7922 166.625 22.1914 166.367 22.6039C164.233 26.0101 161.53 30.3242 161.53 34.0059C161.53 38.1326 164.533 41.282 167.961 41.282C170.415 41.282 172.147 39.9179 172.937 38.3468H171.176V36.5738H173.414C173.414 36.5549 173.416 36.5358 173.417 36.5168C173.419 36.4949 173.421 36.473 173.421 36.4516C173.421 32.4161 170.963 31.5365 170.175 31.5365C168.845 31.5365 168.143 31.8501 168.143 32.3697C168.143 32.5739 168.331 32.679 168.558 32.8066C168.909 33.0035 169.356 33.2541 169.356 34.0059ZM187.98 38.3468C188.768 39.9179 190.502 41.282 192.955 41.282C196.382 41.282 199.386 38.1326 199.386 34.0059C199.386 30.3242 196.683 26.0101 194.549 22.6039L194.549 22.6027C194.29 22.1906 194.041 21.7918 193.805 21.409C193.553 20.9999 193.287 20.5775 193.015 20.1438C191.104 17.1049 188.842 13.5078 188.465 9.98988H185.433V21.7764H186.251C186.435 21.7764 186.585 21.8676 186.585 22.0516C186.585 22.2349 186.524 22.357 186.343 22.4181L186.319 22.426L186.285 22.4366L186.285 22.4366C186.136 22.4829 186.04 22.513 186.04 22.7854C186.04 22.871 186.175 22.9974 186.37 23.1793C186.872 23.647 187.768 24.4818 187.768 25.934C187.768 26.9838 186.877 28.2869 185.433 29.2985V36.5738H186.411C186.41 36.5534 186.409 36.5327 186.408 36.512L186.408 36.5119C186.406 36.4705 186.404 36.4291 186.404 36.3905C186.404 34.3113 187.648 30.5201 191.196 30.5201C193.987 30.5201 194.957 32.6906 194.957 33.6997C194.957 34.7087 194.168 35.5957 193.199 35.5957C192.228 35.5957 191.56 35.1363 191.56 34.0059C191.56 33.2541 192.007 33.0035 192.358 32.8066C192.586 32.679 192.773 32.5739 192.773 32.3697C192.773 31.8501 192.072 31.5365 190.742 31.5365C189.952 31.5365 187.495 32.4161 187.495 36.4516C187.495 36.4748 187.497 36.4986 187.499 36.5224L187.499 36.5304C187.5 36.5449 187.502 36.5594 187.502 36.5738H189.315V38.3468H187.98ZM179.911 9.98988V14.3561C177.992 14.6142 177.273 16.2089 177.273 17.1903C177.273 18.2604 177.607 19.3306 179.002 20.3087C178.045 20.492 177.223 20.7754 176.514 21.1273V9.98988H179.911ZM186.251 25.6897C186.251 24.7735 185.881 24.2335 185.433 23.9599V27.7901C186.011 27.0531 186.251 26.2663 186.251 25.6897ZM181.004 30.8858C182.261 30.784 183.414 30.424 184.402 29.9199V36.5738H181.004V30.8858ZM179.911 36.5738V30.9061C178.579 30.8703 177.445 30.6504 176.514 30.2929V36.5738H179.911ZM175.483 27.8773C174.91 27.1524 174.603 26.3013 174.603 25.4454C174.603 24.916 174.859 24.1073 175.483 23.3116V27.8773ZM179.245 24.1911C179.381 24.3125 179.629 24.4567 179.911 24.5642V20.9489C178.433 21.19 177.326 21.7014 176.514 22.3114V28.835C177.383 29.4328 178.529 29.8213 179.911 29.8677V25.8102C178.95 25.5863 178.456 24.7857 178.456 24.4974C178.456 24.4632 178.456 24.4299 178.456 24.3978V24.3975V24.3972C178.453 24.1136 178.451 23.9167 178.669 23.9167C178.911 23.9167 179.002 23.9778 179.245 24.1911ZM179.911 19.5725C179.215 18.7882 178.911 17.8638 178.911 17.3124C178.911 16.6291 179.383 15.9466 179.911 15.6429V19.5725ZM182.733 24.7417C182.298 25.0878 181.622 25.5545 181.004 25.7638V29.8474C182.492 29.7334 183.594 29.3066 184.402 28.7503V23.7562C183.843 23.8543 183.325 24.2686 182.847 24.6508L182.847 24.6508L182.733 24.7417ZM184.402 9.98988V22.1209C183.969 22.4531 183.327 22.9581 182.915 23.3352C182.382 23.823 181.584 24.4021 181.004 24.6187V20.8292C181.278 20.8113 181.557 20.7974 181.854 20.7974C181.54 20.7078 181.262 20.5808 181.004 20.4399V15.4963C181.456 15.5305 181.793 15.6233 181.793 15.8448C181.793 15.988 181.753 16.0642 181.711 16.1454C181.662 16.2379 181.611 16.3369 181.611 16.5485C181.611 16.946 181.915 17.4656 182.551 17.4656C183.188 17.4656 183.522 17.1601 183.522 16.2732C183.522 15.4897 182.362 14.5654 181.004 14.3593V9.98988H184.402Z" fill="#001722"/>
</svg>
